<svg width="600" height="500" viewBox="0 0 600 500" fill="none" xmlns="http://www.w3.org/2000/svg">
  <rect width="600" height="500" rx="8" fill="#FFF8EC"/>
  <rect x="40" y="40" width="180" height="100" rx="4" fill="#FFFFFF" stroke="#D1D5DB" stroke-width="1"/>
  <rect x="50" y="60" width="120" height="10" rx="2" fill="#FCB045"/>
  <rect x="50" y="80" width="80" height="10" rx="2" fill="#FDCF85"/>
  <rect x="50" y="100" width="140" height="10" rx="2" fill="#FDCF85"/>
  
  <rect x="240" y="40" width="180" height="100" rx="4" fill="#FFFFFF" stroke="#D1D5DB" stroke-width="1"/>
  <rect x="250" y="60" width="120" height="10" rx="2" fill="#FCB045"/>
  <rect x="250" y="80" width="80" height="10" rx="2" fill="#FDCF85"/>
  <rect x="250" y="100" width="140" height="10" rx="2" fill="#FDCF85"/>
  
  <rect x="440" y="40" width="120" height="100" rx="4" fill="#FFFFFF" stroke="#D1D5DB" stroke-width="1"/>
  <rect x="450" y="60" width="80" height="10" rx="2" fill="#FCB045"/>
  <rect x="450" y="80" width="40" height="10" rx="2" fill="#FDCF85"/>
  <rect x="450" y="100" width="100" height="10" rx="2" fill="#FDCF85"/>
  
  <rect x="40" y="160" width="520" height="40" rx="4" fill="#FFFFFF" stroke="#D1D5DB" stroke-width="1"/>
  <rect x="50" y="175" width="200" height="10" rx="2" fill="#FCB045"/>
  <rect x="480" y="175" width="70" height="10" rx="2" fill="#FDCF85"/>
  
  <rect x="40" y="220" width="520" height="240" rx="4" fill="#FFFFFF" stroke="#D1D5DB" stroke-width="1"/>
  
  <rect x="60" y="240" width="140" height="180" rx="4" fill="#FFFAED" stroke="#FFE0B2" stroke-width="1"/>
  <rect x="70" y="260" width="100" height="10" rx="2" fill="#FCB045"/>
  <rect x="70" y="280" width="120" height="10" rx="2" fill="#FDCF85"/>
  <rect x="70" y="320" width="120" height="80" rx="2" fill="#FFF3D6"/>
  
  <rect x="220" y="240" width="140" height="180" rx="4" fill="#FFFAED" stroke="#FFE0B2" stroke-width="1"/>
  <rect x="230" y="260" width="100" height="10" rx="2" fill="#FCB045"/>
  <rect x="230" y="280" width="120" height="10" rx="2" fill="#FDCF85"/>
  <rect x="230" y="320" width="120" height="80" rx="2" fill="#FFF3D6"/>
  
  <rect x="380" y="240" width="140" height="180" rx="4" fill="#FFFAED" stroke="#FFE0B2" stroke-width="1"/>
  <rect x="390" y="260" width="100" height="10" rx="2" fill="#FCB045"/>
  <rect x="390" y="280" width="120" height="10" rx="2" fill="#FDCF85"/>
  <rect x="390" y="320" width="120" height="80" rx="2" fill="#FFF3D6"/>
</svg> 